# xmcd CD database file
#
# Track frame offsets:
#	183
#	26425
#	57290
#	88385
#	110123
#	129183
#	155638
#	176055
#
# Disc length: 3008 seconds
#
# Revision: 4
# Processed by: cddbd v1.5.2PL0 Copyright (c) Steve Scherf et al.
# Submitted via: CDex 2.09
#
DISCID=6a0bbe08
DTITLE=John Mayall's Bluesbreakers - The Power Of The Blues
DYEAR=1990
DGENRE=Blues
TTITLE0=Ridin' On The L and N
TTITLE1=Help Me
TTITLE2=Racehorse Man
TTITLE3=All Your Love
TTITLE4=I Ain't Got You
TTITLE5=Wild About You
TTITLE6=It Ain't Right
TTITLE7=Room To Move
EXTD=YEAR: 1990
EXTT0=
EXTT1=
EXTT2=
EXTT3=
EXTT4=
EXTT5=
EXTT6=
EXTT7=
PLAYORDER=
